<svg width="320" height="240" viewBox="0 0 320 240" fill="none" xmlns="http://www.w3.org/2000/svg">
  <defs>
    <linearGradient id="grad" x1="0" y1="0" x2="1" y2="1">
      <stop offset="0%" stop-color="#F97316" stop-opacity="0.85" />
      <stop offset="100%" stop-color="#0EA5E9" stop-opacity="0.75" />
    </linearGradient>
    <linearGradient id="accent" x1="0" y1="0" x2="0" y2="1">
      <stop offset="0%" stop-color="#0F172A" stop-opacity="0.9" />
      <stop offset="100%" stop-color="#0F172A" stop-opacity="0.6" />
    </linearGradient>
    <clipPath id="rounded">
      <rect x="30" y="26" width="260" height="188" rx="28" />
    </clipPath>
  </defs>
  <rect x="10" y="10" width="300" height="220" rx="36" fill="url(#grad)" opacity="0.12" />
  <rect x="24" y="24" width="272" height="192" rx="32" fill="#ffffff" stroke="#e2e8f0" stroke-width="2" />
  <g clip-path="url(#rounded)">
    <rect x="30" y="26" width="260" height="188" rx="28" fill="#F8FAFC" />
    <rect x="48" y="52" width="160" height="20" rx="10" fill="#0F172A" opacity="0.8" />
    <rect x="48" y="86" width="224" height="14" rx="7" fill="#CBD5E1" />
    <rect x="48" y="110" width="186" height="14" rx="7" fill="#CBD5E1" />
    <rect x="48" y="134" width="140" height="14" rx="7" fill="#CBD5E1" />
    <rect x="48" y="166" width="100" height="20" rx="10" fill="#F97316" opacity="0.9" />
    <circle cx="230" cy="88" r="26" fill="#F97316" opacity="0.1" />
    <circle cx="230" cy="88" r="16" fill="#0F172A" opacity="0.9" />
  </g>
  <circle cx="70" cy="196" r="32" fill="#0EA5E9" opacity="0.18" />
  <text x="70" y="202" text-anchor="middle" fill="#0F172A" font-size="18" font-family="Inter, Arial" font-weight="700">Step 6</text>
</svg>
